#!OML:ASF F:\VICON\USERDATA\INSTALL\rory3\rory3.ASF
:FULLY-SPECIFIED
:DEGREES
34
root 0.165703 18.4996 -11.3104 5.15196 1.22985 -6.33602
lowerback 14.0536 0.901967 5.91159
upperback 0.99418 2.19356 0.978421
thorax -6.65153 0.909897 -2.72603
lowerneck -9.23639 -1.099 -0.0320177
upperneck -8.67659 -1.36455 1.82315
head -1.14849 -0.686674 0.542768
rclavicle 6.3959e-014 7.55382e-015
rhumerus -29.5198 26.8721 -85.7945
rradius 112.981
rwrist -2.61742
rhand -36.6286 33.2013
rfingers 7.12502
rthumb -9.71628 3.44545
lclavicle 6.3959e-014 7.55382e-015
lhumerus -55.8749 -4.05651 90.3799
lradius 112.711
lwrist 27.8878
lhand -34.6398 8.21212
lfingers 7.12502
lthumb -7.79708 38.0484
rfemur 22.5909 8.38669 35.1647
rtibia 35.4739
rfoot 27.2517 -2.60386
rtoes 24.0207
lfemur -35.5004 -4.91694 -12.1503
ltibia 27.1425
lfoot 6.34038 -4.15863
ltoes -25.8546
35
root 0.159346 18.4726 -10.7741 5.07377 1.31448 -6.18413
lowerback 13.6468 0.949034 5.48421
upperback 1.46204 2.13509 0.901155
thorax -5.94203 0.922958 -2.53653
lowerneck -9.84798 -1.06487 -0.208954
upperneck -9.06458 -1.28287 2.14174
head -1.1712 -0.640708 0.670894
rclavicle 3.53837e-014 1.53064e-014
rhumerus -30.1054 26.2602 -85.9586
rradius 111.754
rwrist -3.09155
rhand -35.7427 32.6511
rfingers 7.12502
rthumb -8.86154 2.85717
lclavicle 3.53837e-014 1.53064e-014
lhumerus -53.8976 -4.24776 90.1716
lradius 112.342
lwrist 28.0689
lhand -35.0033 8.46191
lfingers 7.12502
lthumb -8.14792 38.2848
rfemur 21.147 7.92756 34.9956
rtibia 40.2862
rfoot 27.4655 -2.80151
rtoes 19.024
lfemur -34.3571 -5.02747 -12.2896
ltibia 24.2298
lfoot 7.21838 -3.48624
ltoes -26.7632
36
root 0.151525 18.4308 -10.2487 4.93214 1.15285 -5.92874
lowerback 13.4878 1.06693 5.00129
upperback 1.86537 2.17758 0.657885
thorax -5.42967 0.973932 -2.51711
lowerneck -10.2034 -1.05253 -0.181806
upperneck -9.50904 -1.24187 2.50444
head -1.25397 -0.623201 0.781392
rclavicle -1.0635e-014 -1.41137e-014
rhumerus -30.6352 25.6087 -86.351
rradius 110.304
rwrist -3.36888
rhand -35.5456 31.6591
rfingers 7.12502
rthumb -8.67127 1.85717
lclavicle -1.0635e-014 -1.41137e-014
lhumerus -51.8957 -4.72229 89.724
lradius 111.971
lwrist 28.4847
lhand -35.0189 8.57717
lfingers 7.12502
lthumb -8.16303 38.3995
rfemur 19.6388 7.65268 34.6664
rtibia 45.3265
rfoot 28.2567 -3.2854
rtoes 18.8464
lfemur -32.7686 -4.21843 -13.0795
ltibia 22.2362
lfoot 4.9268 -2.47733
ltoes -24.2625
37
root 0.141889 18.3749 -9.71987 4.66347 0.757075 -5.32358
lowerback 13.6323 1.26635 4.0342
upperback 2.08119 2.28208 0.352256
thorax -5.29785 1.04789 -2.31341
lowerneck -10.2424 -1.08113 -0.165544
upperneck -9.58722 -1.26307 2.82663
head -1.27069 -0.636385 0.879582
rclavicle 1.83876e-014 -7.95139e-016
rhumerus -31.29 25.2408 -86.7903
rradius 108.552
rwrist -3.68864
rhand -35.339 29.0756
rfingers 7.12502
rthumb -8.47189 -0.734449
lclavicle 1.83876e-014 -7.95139e-016
lhumerus -50.2791 -5.2149 89.3716
lradius 111.712
lwrist 29.1989
lhand -34.9265 8.92832
lfingers 7.12502
lthumb -8.07388 38.7541
rfemur 18.2159 7.46251 33.8728
rtibia 50.5336
rfoot 29.3899 -4.15029
rtoes 21.5453
lfemur -31.2584 -3.44914 -14.0815
ltibia 21.0345
lfoot 4.63398 -2.29398
ltoes -32.8221
38
root 0.133059 18.3073 -9.19283 4.42033 0.545821 -4.35631
lowerback 13.7868 1.44059 2.71235
upperback 2.20673 2.2999 -0.0145299
thorax -5.28622 1.0796 -1.96048
lowerneck -10.1405 -1.0634 0.00594846
upperneck -9.65204 -1.24451 2.97403
head -1.30811 -0.634768 0.898807
rclavicle 2.97183e-014 -5.1684e-015
rhumerus -32.3185 24.7675 -87.2942
rradius 106.741
rwrist -4.35299
rhand -37.3077 20.2065
rfingers 7.12502
rthumb -10.3715 -9.51774
lclavicle 2.97183e-014 -5.1684e-015
lhumerus -48.6946 -5.85437 89.1263
lradius 111.489
lwrist 30.1213
lhand -34.2954 9.6747
lfingers 7.12502
lthumb -7.46468 39.523
rfemur 16.5515 6.97714 32.5514
rtibia 55.8329
rfoot 29.9374 -5.11537
rtoes 20.3697
lfemur -29.9647 -2.39928 -15.7183
ltibia 20.7244
lfoot 3.4112 -4.59634
ltoes -46.0939
